<svg width="856" height="219" viewBox="0 0 856 219" fill="none" xmlns="http://www.w3.org/2000/svg">
<g clip-path="url(#clip0_207_2)">
<path d="M148.868 212.682L-0.147461 108.035L150.112 6.64404L297.053 108.405L148.868 212.682Z" stroke="white" stroke-width="7.41" stroke-miterlimit="10"/>
<path d="M94.9449 143.741C81.3792 146.996 71.2494 146.034 67.7839 141.181C61.2232 131.888 76.4328 101.731 116.108 73.6905C143.61 54.2764 168.149 46.2711 182.752 46.2711C189.253 46.2711 193.814 47.8396 195.829 50.7103C198.154 53.9805 197.739 59.8699 194.51 67.3425C199.615 65.5683 204.841 64.1687 210.149 63.1548C211.764 55.5638 210.949 48.6091 206.906 42.8825C191.593 21.2489 144.705 36.9636 108.214 62.6517C71.7233 88.3398 41.3338 127.39 56.6471 149.009C61.3862 155.727 69.7536 159.175 80.8609 159.175C84.932 159.144 88.9918 158.743 92.99 157.976C94.2236 152.624 96.2185 147.477 98.9139 142.69C97.6107 143.06 96.263 143.415 94.9449 143.741Z" fill="white"/>
<path d="M147.578 118.171C139.314 124.04 130.604 129.254 121.528 133.767C118.807 137.02 116.281 140.429 113.96 143.978C111.893 147.118 110.09 150.424 108.569 153.862C125.256 147.887 141.02 139.598 155.398 129.239C175.983 114.694 194.658 95.916 204.27 78.4404C196.523 80.7151 188.998 83.6867 181.788 87.3188C171.781 99.0499 160.28 109.422 147.578 118.171Z" fill="white"/>
<path d="M181.834 87.2747C189.044 83.6426 196.568 80.671 204.315 78.3963C207.011 73.6053 209.006 68.4528 210.239 63.0959C204.931 64.1098 199.704 65.5094 194.6 67.2835C191.288 74.504 186.992 81.2316 181.834 87.2747Z" fill="white"/>
<path d="M144.527 95.265C153.963 88.5317 163.997 82.6771 174.502 77.7746C178.424 72.3348 181.347 66.2423 183.136 59.781C166.615 65.7756 150.99 73.9949 136.693 84.2114C117.441 97.8249 101.357 113.702 91.4643 128.944C88.7738 133.023 86.4779 137.348 84.6074 141.862C91.2521 139.964 97.7346 137.539 103.993 134.611C113.057 121.293 127.363 107.399 144.527 95.265Z" fill="white"/>
<path d="M235.385 64.4423C228.217 54.3061 214.088 52.3676 197.354 55.8006C197.12 60.9041 195.945 65.9206 193.888 70.5979C199.524 68.9306 205.354 68.0103 211.23 67.8604C217.732 67.8604 222.293 69.429 224.322 72.2996C230.883 81.5775 215.673 111.749 175.998 139.775C158.093 152.412 139.403 161.498 123.364 165.345C109.799 168.6 99.6688 167.639 96.2034 162.785C94.5595 160.462 94.2929 156.999 95.2556 152.753C91.5679 154.01 87.9544 155.076 84.4593 155.919C83.3486 156.186 82.2823 156.393 81.2012 156.615C80.9447 161.579 82.3232 166.491 85.1257 170.598C89.8796 177.316 98.2471 180.764 109.354 180.764C115.144 180.69 120.906 179.935 126.519 178.515C144.202 174.283 164.55 164.457 183.817 150.844C220.235 125.082 250.698 86.0759 235.385 64.4423Z" fill="white"/>
<path d="M95.2556 152.723C96.8276 146.858 99.3975 141.307 102.853 136.313C103.208 135.75 103.608 135.173 103.993 134.611C97.7346 137.539 91.252 139.964 84.6074 141.862C82.5784 146.545 81.424 151.56 81.2012 156.659C82.2823 156.437 83.3486 156.23 84.4593 155.963C87.9544 155.046 91.568 153.98 95.2556 152.723Z" fill="white"/>
<path d="M373.959 152.013V64.0576H434.679C445.993 64.0576 455.185 66.0848 462.254 70.1393C469.378 74.1789 472.932 79.8168 472.932 87.1118C472.932 95.5759 467.897 101.376 457.826 104.513C470.582 108.173 476.955 115.103 476.946 125.304C476.707 129.42 475.445 133.413 473.273 136.919C471.101 140.425 468.087 143.335 464.505 145.384C457.041 149.793 444.428 152.003 426.667 152.013H373.959ZM399.432 98.3429H429.925C442.118 98.3429 448.215 95.058 448.215 88.488C448.215 82.4803 441.866 79.4715 429.169 79.4617H399.432V98.3429ZM399.432 136.594H431.598C444.858 136.594 451.483 132.431 451.473 124.105C451.473 116.736 445.238 113.051 432.768 113.051H399.432V136.594Z" fill="white" stroke="white" stroke-width="2.04" stroke-miterlimit="10"/>
<path d="M601.154 152.013H572.808C571.028 147.003 570.097 141.732 570.054 136.416L569.876 129.846C569.777 125.447 568.415 122.32 565.788 120.465C563.162 118.61 557.846 117.673 549.838 117.653H522.974V152.013H497.501V64.0576H560.22C572.068 64.0576 581.506 66.3463 588.536 70.9236C595.566 75.5009 599.1 81.6565 599.14 89.3906C599.14 99.3048 592.767 106.21 580.021 110.107C586.932 112.08 591.246 114.768 592.964 118.171C594.682 121.575 595.546 126.936 595.556 134.256V137.778C595.471 140.477 595.78 143.173 596.474 145.783C596.846 146.782 597.474 147.667 598.295 148.347C599.116 149.028 600.102 149.48 601.154 149.66V152.013ZM573.253 91.1811C573.253 83.3681 567.24 79.4617 555.214 79.4617H522.974V102.96H553.2C566.578 102.96 573.262 99.0335 573.253 91.1811Z" fill="white" stroke="white" stroke-width="2.04" stroke-miterlimit="10"/>
<path d="M620.362 64.0576H644.25L679.438 138.266L714.433 64.0576H738.322V152.013H722.179V78.2186L687.509 152.072H671.145L636.49 77.7896V152.013H620.362V64.0576Z" fill="white"/>
<path d="M773.821 124.075C774.709 137.541 786.291 144.274 808.564 144.274C818.753 144.274 826.494 143.036 831.786 140.56C837.078 138.083 839.724 134.182 839.724 128.855C839.728 127.196 839.326 125.56 838.551 124.092C837.777 122.625 836.654 121.369 835.281 120.435C832.408 118.196 825.201 116.09 813.659 114.117L788.275 110.062C780.199 108.622 773.85 106.25 769.23 102.945C767.006 101.387 765.206 99.299 763.996 96.8698C762.785 94.4405 762.202 91.7473 762.299 89.0353C762.299 80.9264 766.056 74.4304 773.569 69.5473C781.082 64.6642 791.884 62.198 805.973 62.1487C818.808 62.1487 829.476 64.319 837.976 68.6595C846.477 73.0001 851.098 80.0731 851.838 89.8788H836.244C834.634 78.3369 824.47 72.5561 805.75 72.5364C797.576 72.5364 790.951 73.8139 785.876 76.3689C780.801 78.9239 778.338 82.6726 778.486 87.6149C778.479 89.0094 778.802 90.3859 779.427 91.6327C780.052 92.8796 780.963 93.9617 782.085 94.7915C784.484 96.6954 789.02 98.1752 795.695 99.2307L828.024 104.795C837.325 106.274 844.285 108.923 848.906 112.741C851.204 114.593 853.035 116.958 854.252 119.647C855.469 122.335 856.037 125.271 855.911 128.219C855.911 136.781 851.512 143.337 842.715 147.884C833.919 152.432 821.888 154.691 806.624 154.661C790.748 154.661 778.718 151.894 770.533 146.36C762.348 140.826 758.256 133.398 758.256 124.075H773.821Z" fill="white"/>
</g>
<defs>
<clipPath id="clip0_207_2">
<rect width="856" height="219" fill="white"/>
</clipPath>
</defs>
</svg>
