<svg width="405" height="139" viewBox="0 0 405 139" fill="none" xmlns="http://www.w3.org/2000/svg">
<g clip-path="url(#clip0_204_161)">
<path fill-rule="evenodd" clip-rule="evenodd" d="M213.861 24.8617C222.507 25.2032 231.82 24.8037 240.483 24.754C247.596 24.7144 303.983 24.0203 306.609 24.441C310.024 24.9878 312.891 28.4463 311.226 32.747C309.698 36.7062 306.398 36.4254 301.565 36.4291L208.025 36.4254C207.275 36.5727 200.642 47.724 199.76 49.1085C198.185 51.5856 175.734 87.2672 175.562 88.3028L226.683 88.7557C227.526 88.1555 235.425 74.1239 236.54 72.1429L246.201 55.4546L280.353 55.5623C287.187 55.5844 284.418 55.3828 289.325 59.6725L318.404 87.1337C319.383 88.2273 319.495 88.4786 321.486 88.486L351.656 88.741C357.851 88.8063 382.037 89.3347 386.117 88.9821C385.112 87.7238 381.119 85.0229 379.483 83.8189L332.353 48.5727C335.007 47.0152 335.692 47.2168 337.633 45.1309C341.428 41.0465 340.398 35.5555 340.355 29.9854C340.33 26.9108 340.309 23.8372 340.284 20.7626C340.24 15.3002 340.786 12.6251 334.536 8.71654C327.75 4.47289 313.726 5.42288 305.142 5.41184L224.545 5.29309L213.861 24.8617Z" fill="white"/>
<path fill-rule="evenodd" clip-rule="evenodd" d="M0.31543 88.0937C21.3837 88.5181 44.5973 88.2769 65.9282 88.346C96.1801 88.4389 127.814 88.7989 157.865 88.5899L171.67 64.3901C157.033 64.0053 139.753 64.3293 124.711 64.3616L70.9976 64.437C71.8902 62.3474 74.1292 59.4174 75.4057 57.418L88.9452 36.3682L36.6837 36.2274C36.0243 37.8927 33.452 41.0105 32.225 42.823L2.56451 84.8249C1.83257 85.8753 0.857266 87.0222 0.31543 88.0937Z" fill="white"/>
<path fill-rule="evenodd" clip-rule="evenodd" d="M45.1289 24.9656C54.2768 25.3826 73.5156 25.0199 82.5414 25.0015L181.671 24.7714C182.561 23.5775 183.486 21.5284 184.33 20.0647L192.25 5.44764L58.6675 5.13098L48.4286 20.1292C47.7398 21.104 45.6808 24.4336 45.1289 24.9656Z" fill="white"/>
<path fill-rule="evenodd" clip-rule="evenodd" d="M368.706 117.716C366.31 118.356 360.136 122.175 357.51 119.927C354.002 116.926 360.653 110.554 362.898 108.881C364.513 107.677 365.984 106.404 364.757 104.21C362.787 100.701 352.901 105.537 350.723 106.472C351.078 105.318 351.778 104.75 352.104 103.578C350.523 103.351 348.438 103.505 346.799 103.52C344.147 103.538 343.756 103.118 342.727 105.059C341.439 107.486 340.007 109.924 338.748 112.34C336.704 116.26 337.177 115.947 333.396 117.993C331.308 119.126 327.609 121.28 325.311 120.216C324.858 117.993 328.213 114.498 330.074 111.844C330.975 110.56 335.419 104.797 335.595 103.814C333.96 103.768 332.331 103.761 330.699 103.733C328.403 103.693 328.123 103.48 327.007 105.181L320.873 114.408C319.854 115.89 312.546 118.795 310.681 119.561C303.366 122.567 298.842 121.366 304.195 113.825C306.308 110.852 309.637 107.453 313.762 108.191C315.962 108.587 315.664 109.676 316.897 110.212C317.486 109.762 320.202 106.76 320.46 106.066C317.945 101.474 307.108 102.405 300.679 108.515C292.63 116.166 296.794 117.001 293.142 118.119C290.997 118.777 283.46 122.139 284.525 118.767C284.547 118.698 285.221 117.677 285.25 117.637L295.205 103.505C294.667 103.103 294.329 103.063 293.39 103.005C288.468 102.693 288.217 103.801 287.442 103.973C286.979 104.074 284.052 103.739 283.162 103.746C281.652 103.757 280.091 103.884 278.591 104.092C263.773 106.163 251.759 126.993 268.985 123.851C272.396 123.228 273.322 122.255 275.772 121.176C277.9 128.093 289.835 121.715 294.154 120.424C294.692 121.395 294.588 122.434 295.388 123.275C298.334 126.393 308.596 123.783 312.224 122.646C313.974 122.1 316.973 120.715 318.433 120.442C319.215 122.268 319.072 122.83 320.937 123.541C326.393 125.627 331.617 121.514 334.103 120.693L332.658 123.714C334.322 123.84 336 123.768 337.6 123.754C341.802 123.714 340.703 124.383 345.148 116.202C345.822 114.962 348.026 110.59 348.972 110.043C350.487 109.173 354.576 107.677 356.485 107.385C355.103 109.975 351.964 112.621 350.658 116.343C348.933 121.255 352.908 123.947 357.273 124.113C362.085 124.296 365.407 122.477 369.144 120.999C370.439 120.485 370.443 120.913 371.483 121.538C375.182 123.747 378.041 123.089 381.431 122.675L379.508 125.979C370.436 126.512 361.507 128.105 354.529 133.282C353.436 134.095 349.883 137.486 349.687 139.036C352.008 139.324 368.51 138.543 372.355 138.432C382.331 138.144 380.014 139.399 383.896 132.232C384.168 131.73 385.733 128.723 386.145 128.508C388.513 127.972 394.443 128.061 397.158 128.14C399.978 128.227 399.371 128.701 401.427 127.267C402.238 126.699 404.254 125.39 404.767 124.803C399.469 124.12 392.677 125.879 387.781 125.443L394.443 114.117C395.536 112.236 396.645 110.424 397.775 108.489C398.36 107.486 400.979 103.541 400.882 102.621C390.507 102.107 396.785 103.516 392.817 103.358C385.696 103.074 376.882 102.193 371.781 108.817C369.858 111.316 368.391 113.463 368.706 117.716Z" fill="white"/>
<path fill-rule="evenodd" clip-rule="evenodd" d="M206.159 110C207.69 110.324 223.271 102.388 233.182 101.115C232.505 102.473 231.289 103.826 230.299 105.084L211.357 129.647C210.776 130.381 210.159 130.805 210.041 131.985C211.687 132.43 215.773 132.279 217.843 132.33C226.054 132.528 224.027 133.38 227.712 126.056C228.641 124.211 229.706 122.283 230.499 120.431L252.626 133.854C254.412 134.954 256.271 136.469 258.872 136.612C261.652 136.763 264.759 136.674 267.564 136.71C272.791 136.771 280.467 137.295 285.418 136.759C284.041 135.375 242.539 120.41 241.355 119.324C242.556 117.824 262.815 106.951 267.514 104.214C269.975 102.779 269.716 101.496 269.9 98.1303C270.071 94.9085 269.326 95.3826 264.633 94.8938C246.717 93.0205 228.282 94.6526 210.78 98.0871C205.689 99.0868 206.281 98.5326 206.181 101.967C206.119 104.052 205.466 108.385 206.159 110Z" fill="white"/>
<path fill-rule="evenodd" clip-rule="evenodd" d="M232.387 116.947L250.808 104.116C251.956 103.297 256.138 100.481 256.533 99.4098C254.603 98.6798 243.798 99.1944 241.52 99.7118C240.351 99.9778 239.834 101.881 239.335 102.873C238.138 105.253 237.025 107.475 235.831 109.867C235.067 111.384 232.67 115.706 232.387 116.947Z" fill="#003782"/>
<path fill-rule="evenodd" clip-rule="evenodd" d="M391.422 106.415C388.85 104.822 382.009 107.325 380.104 108.709C376.416 111.388 375.498 116.918 377.342 118.745C378.21 119.608 381.453 120.356 383.056 119.605C383.831 119.241 385.453 116.397 386.077 115.466L390.389 109.029C390.941 108.219 391.641 107.677 391.422 106.415Z" fill="#003782"/>
<path fill-rule="evenodd" clip-rule="evenodd" d="M285.042 107.051C274.165 106.595 266.22 116.745 268.687 119.284C270.115 120.755 273.075 119.626 274.574 118.978C278.302 117.371 279.216 115.3 281.982 111.546C282.739 110.521 284.709 108.166 285.042 107.051Z" fill="#003782"/>
<path fill-rule="evenodd" clip-rule="evenodd" d="M334.035 95.2353C328.593 97.0442 329.539 103.88 335.071 101.992C339.979 100.319 339.756 93.3372 334.035 95.2353Z" fill="white"/>
</g>
<defs>
<clipPath id="clip0_204_161">
<rect width="405" height="139" fill="white"/>
</clipPath>
</defs>
</svg>
