<svg width="739" height="183" viewBox="0 0 739 183" fill="none" xmlns="http://www.w3.org/2000/svg">
<path fill-rule="evenodd" clip-rule="evenodd" d="M91.1264 0C141.454 0 182.256 40.7986 182.256 91.1264C182.256 141.454 141.454 182.256 91.1264 182.256C40.7986 182.256 0 141.454 0 91.1264C0 40.7986 40.7986 0 91.1264 0Z" fill="white"/>
<mask id="mask0_206_11" style="mask-type:luminance" maskUnits="userSpaceOnUse" x="0" y="0" width="183" height="183">
<path d="M91.1264 0C141.454 0 182.256 40.7986 182.256 91.1264C182.256 141.454 141.454 182.256 91.1264 182.256C40.7986 182.256 0 141.454 0 91.1264C0 40.7986 40.7986 0 91.1264 0Z" fill="white"/>
</mask>
<g mask="url(#mask0_206_11)">
<path fill-rule="evenodd" clip-rule="evenodd" d="M45.4756 -5.79639L78.3489 -5.58183L49.6653 109.246L16.792 109.175L45.4756 -5.79639Z" fill="#003782"/>
<path fill-rule="evenodd" clip-rule="evenodd" d="M86.0186 39.6733L119.461 39.8522L93.6469 143.347L60.7764 143.281L86.0186 39.6733Z" fill="#003782"/>
<path fill-rule="evenodd" clip-rule="evenodd" d="M131.855 74.7227L165.773 74.9015L139.593 179.873L106.252 179.807L131.855 74.7227Z" fill="#003782"/>
</g>
<path d="M737.98 30.2043L712.265 133.642H687.972L685.244 86.6189L673.554 133.642H650.381L676.096 30.2043H699.269L703.227 76.7799L714.806 30.2043H737.98Z" fill="white"/>
<path d="M650.637 90.7718C648.053 101.165 645.958 108.533 644.351 112.878C642.799 117.18 640.239 121.119 636.672 124.697C633.15 128.275 628.89 131.022 623.893 132.939C618.895 134.856 613.39 135.814 607.378 135.814C601.672 135.814 596.759 134.92 592.639 133.131C588.574 131.299 585.609 128.573 583.744 124.953C581.879 121.332 581.213 117.392 581.745 113.133C582.277 108.874 583.867 101.42 586.514 90.7718L590.914 73.0744C593.497 62.6817 595.565 55.3344 597.118 51.0325C598.724 46.688 601.289 42.7268 604.812 39.149C608.379 35.5712 612.661 32.8239 617.658 30.9073C622.655 28.9906 628.16 28.0322 634.173 28.0322C639.878 28.0322 644.764 28.948 648.829 30.7795C652.949 32.5684 655.941 35.273 657.806 38.8935C659.671 42.5139 660.338 46.4537 659.805 50.713C659.273 54.9723 657.683 62.4261 655.036 73.0744L650.637 90.7718ZM631.37 56.7825C632.567 51.9695 633.044 48.9028 632.802 47.5824C632.614 46.2195 631.664 45.538 629.952 45.538C628.504 45.538 627.247 46.0917 626.182 47.1991C625.171 48.2639 624.004 51.4584 622.68 56.7825L610.672 105.083C609.179 111.089 608.499 114.794 608.633 116.2C608.81 117.605 609.82 118.308 611.664 118.308C613.551 118.308 614.959 117.499 615.888 115.88C616.817 114.262 618.039 110.407 619.553 104.316L631.37 56.7825Z" fill="white"/>
<path d="M591.236 30.2043L565.521 133.642H537.805L563.52 30.2043H591.236Z" fill="white"/>
<path d="M543.257 68.2827H515.541L517.876 58.8909C519.348 52.9705 520.006 49.2649 519.85 47.7741C519.694 46.2834 518.628 45.538 516.653 45.538C514.941 45.538 513.619 46.1769 512.687 47.4547C511.755 48.7325 510.633 52.0121 509.32 57.2937L496.978 106.936C495.824 111.579 495.369 114.645 495.613 116.136C495.867 117.584 496.916 118.308 498.76 118.308C500.778 118.308 502.345 117.478 503.461 115.817C504.62 114.155 505.798 110.918 506.994 106.105L510.044 93.8385H504.448L508.355 78.1217H540.811L527.009 133.642H509.563L508.838 126.231C506.156 129.425 503.166 131.832 499.867 133.45C496.622 135.026 493.047 135.814 489.141 135.814C484.488 135.814 480.391 134.728 476.85 132.556C473.363 130.341 470.968 127.615 469.666 124.378C468.364 121.141 467.889 117.755 468.241 114.219C468.604 110.641 469.67 105.296 471.438 98.183L479.078 67.4521C481.535 57.5705 483.867 50.3936 486.076 45.9213C488.286 41.449 492.44 37.3601 498.54 33.6545C504.695 29.9063 511.898 28.0322 520.149 28.0322C528.269 28.0322 534.603 29.6508 539.153 32.8878C543.703 36.1249 546.234 39.9796 546.746 44.4519C547.269 48.8815 546.476 55.3344 544.369 63.8104L543.257 68.2827Z" fill="white"/>
<path d="M468.864 68.2827H441.148L443.482 58.8909C444.954 52.9705 445.612 49.2649 445.456 47.7741C445.3 46.2834 444.235 45.538 442.259 45.538C440.548 45.538 439.226 46.1769 438.294 47.4547C437.362 48.7325 436.239 52.0121 434.926 57.2937L422.585 106.936C421.431 111.579 420.975 114.645 421.219 116.136C421.474 117.584 422.523 118.308 424.366 118.308C426.385 118.308 427.952 117.478 429.067 115.817C430.226 114.155 431.404 110.918 432.601 106.105L435.65 93.8385H430.054L433.962 78.1217H466.418L452.615 133.642H435.169L434.444 126.231C431.763 129.425 428.772 131.832 425.473 133.45C422.229 135.026 418.653 135.814 414.747 135.814C410.095 135.814 405.998 134.728 402.456 132.556C398.969 130.341 396.574 127.615 395.272 124.378C393.971 121.141 393.496 117.755 393.848 114.219C394.211 110.641 395.276 105.296 397.045 98.183L404.684 67.4521C407.141 57.5705 409.474 50.3936 411.683 45.9213C413.892 41.449 418.047 37.3601 424.147 33.6545C430.301 29.9063 437.504 28.0322 445.756 28.0322C453.875 28.0322 460.21 29.6508 464.76 32.8878C469.309 36.1249 471.84 39.9796 472.352 44.4519C472.875 48.8815 472.083 55.3344 469.976 63.8104L468.864 68.2827Z" fill="white"/>
<path d="M394.128 30.2043L384.279 133.642H355.904L359.144 115.05H349.203L342.935 133.642H314.231L354.035 30.2043H394.128ZM362.912 96.7134C364.42 85.0003 366.61 70.54 369.484 53.3324C361.762 73.0956 356.411 87.5559 353.432 96.7134H362.912Z" fill="white"/>
<path d="M335.14 30.2043L309.425 133.642H285.198L302.558 63.8103L275.52 133.642H258.337L265.096 65.4075L248.133 133.642H223.906L249.621 30.2043H285.501C285.008 36.4229 284.306 43.7489 283.394 52.1824L280.669 78.5049L298.997 30.2043H335.14Z" fill="white"/>
</svg>
