<svg width="690" height="258" viewBox="0 0 690 258" fill="none" xmlns="http://www.w3.org/2000/svg">
<path fill-rule="evenodd" clip-rule="evenodd" d="M357.765 225.019H336.301L348.93 180.815H319.47L323.572 166.459H403.955L399.853 180.815H370.394L357.765 225.019ZM158.298 179.849H125.055L120.963 194.162H154.206C157.004 194.162 159.123 193.609 160.558 192.497C161.987 191.381 163.131 189.366 163.96 186.454C164.623 184.144 164.503 182.469 163.61 181.42C162.718 180.375 160.933 179.849 158.298 179.849ZM163.251 165.26C174.115 165.26 181.098 166.642 184.235 169.393C187.371 172.142 187.898 177.167 185.815 184.456C184.375 189.501 182.418 193.275 179.976 195.733C177.523 198.2 174.12 199.854 169.784 200.684C173.181 201.424 175.524 202.724 176.803 204.577C178.076 206.444 178.295 208.861 177.446 211.823L174.021 223.815H153.1L155.646 214.886C156.309 212.581 156.131 210.994 155.109 210.134C154.086 209.261 151.696 208.834 147.959 208.834H116.774L112.493 223.815H91.5197L108.251 165.26H163.251ZM242.036 224.524C249.989 224.524 255.902 224.217 259.784 223.601C263.647 222.98 266.945 221.936 269.7 220.434C272.79 218.753 275.32 216.567 277.252 213.854C279.188 211.13 280.795 207.53 282.074 203.047L286.635 187.086C288.034 182.187 288.571 178.294 288.226 175.445C287.888 172.585 286.63 170.321 284.5 168.641C282.627 167.165 279.876 166.116 276.26 165.484C272.643 164.852 266.987 164.545 259.269 164.545H234.772C227.022 164.545 221.151 164.852 217.128 165.484C213.12 166.116 209.775 167.165 207.103 168.641C204.102 170.29 201.597 172.549 199.608 175.409C197.62 178.268 195.982 181.916 194.708 186.377L190.048 202.697C188.759 207.206 188.304 210.874 188.67 213.692C189.035 216.509 190.256 218.753 192.308 220.434C194.16 221.936 196.889 222.98 200.464 223.601C204.034 224.217 209.759 224.524 217.634 224.524H242.036ZM240.574 209.893H227.362C220.003 209.893 215.354 209.1 213.386 207.52C211.434 205.933 211.073 202.979 212.3 198.685L214.67 190.39C215.896 186.09 217.942 183.142 220.802 181.555C223.677 179.969 228.775 179.181 236.134 179.181H249.447C256.962 179.181 261.653 179.984 263.521 181.582C265.396 183.178 265.697 186.215 264.419 190.697L262.092 198.848C260.887 203.063 258.825 205.959 255.923 207.53C253.022 209.1 247.902 209.893 240.574 209.893ZM66.7787 179.359H33.5356L29.4436 193.672H62.692C65.4842 193.672 67.603 193.119 69.0379 192.006C70.4674 190.891 71.6109 188.876 72.4406 185.964C73.1032 183.657 72.9777 181.973 72.0906 180.928C71.2035 179.891 69.4079 179.359 66.7787 179.359ZM71.7365 164.77C82.5953 164.77 89.5838 166.157 92.7153 168.902C95.8509 171.651 95.9979 176.693 94.2958 183.966C88.9158 207.013 73.3637 208.344 56.4396 208.344H25.2539L20.9735 223.324H0L16.7317 164.77H71.7365ZM436.426 211.098H449.645C457.002 211.098 462.102 210.306 464.977 208.719C467.832 207.139 469.883 204.185 471.109 199.886L473.479 191.589C474.704 187.295 474.345 184.341 472.393 182.761C470.425 181.174 465.776 180.381 458.417 180.381H445.11C437.595 180.381 432.445 181.19 429.658 182.786C426.876 184.383 424.835 187.415 423.551 191.902L421.224 200.047C420.024 204.263 420.426 207.164 422.43 208.735C424.434 210.306 429.099 211.098 436.426 211.098ZM426.605 225.73C418.651 225.73 412.915 225.422 409.388 224.8C405.876 224.185 403.177 223.136 401.279 221.633C399.149 219.958 397.871 217.768 397.49 215.059C397.108 212.33 397.557 208.735 398.841 204.252L403.402 188.286C404.801 183.392 406.492 179.494 408.46 176.65C410.432 173.791 412.989 171.522 416.079 169.847C418.798 168.369 422.143 167.321 426.119 166.689C430.096 166.059 435.93 165.75 443.648 165.75H468.144C475.894 165.75 481.588 166.059 485.252 166.689C488.899 167.321 491.644 168.369 493.471 169.847C495.532 171.495 496.744 173.75 497.103 176.609C497.453 179.468 497.004 183.12 495.731 187.577L491.07 203.904C489.782 208.412 488.137 212.075 486.16 214.897C484.182 217.715 481.687 219.958 478.676 221.633C475.963 223.136 472.633 224.185 468.708 224.8C464.785 225.422 458.882 225.73 451.007 225.73H426.605ZM566.209 166.459C577.069 166.459 584.051 167.843 587.193 170.598C590.329 173.348 590.856 178.368 588.774 185.657C587.333 190.708 585.376 194.48 582.929 196.932C580.481 199.406 577.073 201.054 572.742 201.889C576.139 202.625 578.483 203.929 579.761 205.782C581.029 207.649 581.248 210.066 580.404 213.03L576.98 225.019H556.053L558.605 216.093C559.267 213.78 559.091 212.2 558.062 211.339C557.044 210.468 554.654 210.039 550.917 210.039H519.726L515.447 225.019H494.478L511.21 166.459H566.209ZM561.257 181.054H528.008L523.921 195.361H557.165C559.962 195.361 562.081 194.814 563.51 193.697C564.945 192.586 566.084 190.571 566.919 187.661C567.576 185.348 567.461 183.673 566.568 182.625C565.671 181.576 563.891 181.054 561.257 181.054ZM617.237 188.208H626.323L660.864 166.459H689.568L643.048 195.361L677.883 225.019H647.833L622.126 202.88H613.04L606.716 225.019H585.137L601.868 166.459H623.446L617.237 188.208Z" fill="white"/>
<path fill-rule="evenodd" clip-rule="evenodd" d="M143.264 248.563H134.361L133.28 251.391H142.183C142.93 251.391 143.498 251.281 143.88 251.062C144.26 250.843 144.562 250.446 144.781 249.868C144.959 249.414 144.923 249.08 144.683 248.877C144.442 248.667 143.968 248.563 143.264 248.563ZM144.573 245.683C147.48 245.683 149.353 245.954 150.193 246.496C151.039 247.04 151.185 248.036 150.632 249.476C150.251 250.473 149.734 251.22 149.082 251.704C148.43 252.189 147.516 252.518 146.358 252.68C147.272 252.826 147.897 253.087 148.242 253.452C148.586 253.818 148.644 254.297 148.419 254.882L147.516 257.251H141.917L142.59 255.487C142.763 255.033 142.715 254.721 142.438 254.548C142.162 254.376 141.526 254.292 140.524 254.292H132.174L131.041 257.251H125.426L129.847 245.683H144.573ZM161.21 252.545H168.256L166.257 248.448L161.21 252.545ZM155.507 257.251H149.4L163.83 245.683H170.969L176.376 257.251H170.233L169.195 255.326H158.026L155.507 257.251ZM198.154 249.852L198.2 249.737C198.373 249.288 198.263 248.954 197.866 248.746C197.475 248.537 196.764 248.433 195.742 248.433H191.259C189.339 248.433 188.05 248.579 187.392 248.871C186.735 249.164 186.223 249.778 185.868 250.708L185.257 252.32C184.939 253.15 185.022 253.724 185.514 254.037C185.999 254.344 187.141 254.501 188.942 254.501H192.194C193.973 254.501 195.184 254.392 195.82 254.168C196.462 253.938 196.9 253.52 197.136 252.909L197.182 252.784H202.86C202.855 252.8 202.844 252.832 202.839 252.868C202.735 253.207 202.652 253.457 202.589 253.624C202.307 254.365 201.926 254.976 201.44 255.461C200.966 255.941 200.355 256.327 199.609 256.615C198.904 256.897 198.033 257.094 196.985 257.214C195.945 257.335 194.458 257.392 192.533 257.392H186.27C184.36 257.392 182.977 257.329 182.122 257.198C181.271 257.068 180.582 256.848 180.065 256.541C179.465 256.171 179.1 255.717 178.969 255.184C178.839 254.647 178.928 253.969 179.24 253.15L180.441 249.993C181.077 248.338 182.142 247.18 183.64 246.523C185.137 245.871 187.523 245.542 190.8 245.542H197.057C199.066 245.542 200.528 245.595 201.436 245.709C202.343 245.824 203.022 246.017 203.471 246.283C203.941 246.564 204.227 246.945 204.322 247.421C204.415 247.889 204.327 248.485 204.056 249.2C203.993 249.372 203.936 249.502 203.898 249.591C203.862 249.685 203.815 249.774 203.769 249.852H198.154ZM210.104 257.251H204.504L208.919 245.683H214.523L210.104 257.251ZM238.879 257.251H230.681L222.9 248.834L219.686 257.251H214.096L218.511 245.683H226.798L234.48 254.168L237.721 245.683H243.295L238.879 257.251ZM262.687 249.857L262.697 249.826C262.9 249.293 262.785 248.923 262.353 248.724C261.92 248.532 260.808 248.433 259.018 248.433H255.757C253.841 248.433 252.563 248.579 251.916 248.866C251.263 249.158 250.762 249.774 250.402 250.713L249.792 252.32C249.468 253.155 249.557 253.724 250.047 254.037C250.533 254.344 251.675 254.501 253.46 254.501H256.701C258.314 254.501 259.451 254.407 260.13 254.225C260.808 254.042 261.236 253.724 261.408 253.275C261.429 253.212 261.455 253.108 261.476 252.967C261.482 252.951 261.487 252.936 261.492 252.925H254.906L255.798 250.588H268.208L266.757 254.387C266.34 255.471 265.405 256.249 263.954 256.708C262.505 257.168 260.198 257.392 257.025 257.392H250.794C248.883 257.392 247.495 257.329 246.635 257.198C245.773 257.068 245.084 256.848 244.573 256.541C243.972 256.171 243.608 255.717 243.477 255.184C243.347 254.647 243.435 253.969 243.748 253.15L244.954 249.993C245.585 248.338 246.65 247.18 248.143 246.523C249.635 245.871 252.02 245.542 255.292 245.542H261.555C263.568 245.542 265.041 245.595 265.954 245.709C266.872 245.824 267.556 246.017 268.005 246.283C268.469 246.564 268.751 246.945 268.845 247.421C268.939 247.895 268.851 248.485 268.573 249.205C268.511 249.372 268.454 249.507 268.417 249.602C268.375 249.69 268.339 249.778 268.302 249.857H262.687ZM299.061 248.532H290.283L288.029 254.439H297.511C298.7 254.439 299.63 254.282 300.293 253.979C300.961 253.672 301.419 253.191 301.67 252.539L302.443 250.504C302.703 249.826 302.557 249.331 302.01 249.011C301.467 248.694 300.485 248.532 299.061 248.532ZM301.863 245.683C304.66 245.683 306.576 245.991 307.614 246.606C308.652 247.227 308.909 248.214 308.392 249.565L306.873 253.546C306.382 254.83 305.517 255.769 304.274 256.364C303.028 256.954 301.3 257.251 299.081 257.251H281.365L285.779 245.683H301.863ZM332.089 248.5H317.65L316.982 250.254H330.586L329.658 252.685H316.053L315.38 254.453H330.044L328.974 257.251H308.72L313.136 245.683H333.17L332.089 248.5ZM344.818 253.99L355.302 245.683H361.247L347.052 257.251H340.272L334.996 245.683H341.103L344.818 253.99ZM381.944 248.5H367.503L366.835 250.254H380.441L379.512 252.685H365.907L365.233 254.453H379.898L378.828 257.251H358.575L362.989 245.683H383.023L381.944 248.5ZM389.098 254.453H401.294L400.229 257.251H382.423L386.844 245.683H392.443L389.098 254.453ZM411.095 257.392C408.961 257.392 407.415 257.335 406.466 257.209C405.521 257.089 404.79 256.881 404.28 256.583C403.705 256.254 403.355 255.821 403.251 255.284C403.142 254.746 403.262 254.037 403.596 253.15L404.801 249.993C405.172 249.028 405.621 248.255 406.148 247.692C406.675 247.128 407.358 246.679 408.188 246.351C408.913 246.058 409.811 245.85 410.881 245.724C411.951 245.6 413.522 245.542 415.598 245.542H422.19C424.271 245.542 425.807 245.6 426.792 245.724C427.774 245.85 428.515 246.058 429.005 246.351C429.563 246.674 429.892 247.123 429.992 247.686C430.091 248.25 429.976 248.975 429.642 249.852L428.41 253.082C428.066 253.969 427.633 254.694 427.106 255.252C426.573 255.811 425.905 256.254 425.102 256.583C424.372 256.881 423.479 257.089 422.425 257.209C421.366 257.335 419.779 257.392 417.66 257.392H411.095ZM413.72 254.501H417.274C419.252 254.501 420.624 254.344 421.396 254.031C422.163 253.719 422.707 253.134 423.036 252.288L423.661 250.645C423.986 249.8 423.88 249.216 423.354 248.902C422.822 248.589 421.569 248.433 419.592 248.433H416.011C413.991 248.433 412.603 248.589 411.856 248.907C411.111 249.221 410.568 249.821 410.229 250.708L409.613 252.32C409.295 253.15 409.409 253.724 409.952 254.037C410.49 254.344 411.747 254.501 413.72 254.501ZM447.412 248.563H439.161L438.044 251.496H446.29C447.041 251.496 447.61 251.381 447.996 251.146C448.382 250.916 448.69 250.504 448.915 249.92C449.098 249.444 449.066 249.101 448.831 248.887C448.592 248.672 448.116 248.563 447.412 248.563ZM448.706 245.683C449.958 245.683 450.939 245.719 451.655 245.792C452.364 245.871 452.948 245.991 453.397 246.162C454.212 246.471 454.713 246.925 454.9 247.525C455.088 248.13 454.979 248.959 454.571 250.024C453.966 251.611 453.121 252.726 452.036 253.385C450.944 254.042 449.405 254.371 447.412 254.371H436.943L435.842 257.251H430.226L434.647 245.683H448.706ZM460.233 257.251H454.791L459.211 245.683H467.472L471.255 252.909L480.659 245.683H488.811L484.396 257.251H478.974L482.126 249.006L471.402 257.251H467.748L463.386 249.006L460.233 257.251ZM511.507 248.5H497.067L496.399 250.254H509.998L509.07 252.685H495.47L494.792 254.453H509.456L508.386 257.251H488.132L492.553 245.683H512.582L511.507 248.5ZM536.427 257.251H528.222L520.442 248.834L517.233 257.251H511.643L516.058 245.683H524.345L532.027 254.168L535.268 245.683H540.841L536.427 257.251ZM552.056 257.251H546.466L549.801 248.516H542.13L543.211 245.683H564.143L563.062 248.516H555.391L552.056 257.251Z" fill="white"/>
<path fill-rule="evenodd" clip-rule="evenodd" d="M477.486 0L399.007 33.823L396.778 34.7874L395.943 35.1534L388.252 28.2916L378.649 19.9537L377.6 21.6542L377.669 21.6381L347.593 70.3991L324.564 107.739C313.186 126.246 354.163 121.67 379.563 103.256C404.956 84.8427 411.699 65.0827 420.513 53.7807C401.621 71.7562 392.4 78.7743 382.684 82.2072C365.587 88.2396 364.209 87.191 375.534 68.5477C377.507 65.2964 380.069 61.1849 382.678 56.9999L444.462 30.191C446.477 33.457 447.682 37.1197 447.98 41.143C450.118 69.9716 404.904 106.82 347.008 123.434C323.154 130.28 300.87 132.618 282.757 130.99C298.449 133.588 301.794 135.566 343.413 130.509C394.076 124.352 496.585 71.5064 477.486 0Z" fill="white"/>
<path fill-rule="evenodd" clip-rule="evenodd" d="M212.081 138.08L290.564 104.258L292.789 103.292L293.622 102.928L301.315 109.79L310.918 118.127L311.967 116.426L311.899 116.442L341.979 67.6808L365.009 30.342C376.386 11.8349 335.404 16.4099 310.01 34.8248C284.615 53.2384 277.869 72.9984 269.054 84.3004C287.945 66.3249 297.167 59.3068 306.883 55.8726C323.98 49.8416 325.357 50.8901 314.039 69.5335C312.06 72.7847 309.498 76.8962 306.889 81.0799L245.111 107.89C243.096 104.624 241.885 100.96 241.588 96.9381C239.454 68.1095 284.667 31.261 342.558 14.6467C366.413 7.80089 388.701 5.46328 406.816 7.09159C391.118 4.49352 387.778 2.51525 346.154 7.57114C295.491 13.729 192.981 66.5747 212.081 138.08Z" fill="white"/>
</svg>
