<svg width="585" height="199" viewBox="0 0 585 199" fill="none" xmlns="http://www.w3.org/2000/svg">
<path fill-rule="evenodd" clip-rule="evenodd" d="M0 90.4704C11.8708 89.9287 25.8306 87.2178 38.23 85.8369L155.506 74.4135C153.031 86.0961 121.682 131.405 113.343 142.127C99.0101 160.553 77.9884 183.457 59.9871 198.749L157.26 199C161.917 192.958 195.545 101.397 246.053 73.4256C287.965 50.2177 371.199 36.7314 420.191 32.3847C441.746 30.4727 464.353 27.4729 486.78 27.3943C501.816 27.3433 518.63 28.652 531.351 36.1408C537.226 39.5995 537.006 41.6496 540.961 44.9171C548.069 38.8538 554.997 32.6567 562.212 26.485L583.56 7.07144C575.081 1.83458 520.254 -0.306909 506.32 0.0351335C428.447 1.94293 365.382 24.6707 282.719 32.2615C222.987 37.7448 180.098 38.5734 121.72 41.6475C99.5728 42.8139 62.1016 42.0002 42.6232 47.6322C38.765 48.7497 1.28748 88.074 0 90.4704Z" fill="#FEFEFE"/>
<path fill-rule="evenodd" clip-rule="evenodd" d="M325.03 123.804C322.993 131.739 320.134 137.513 316.967 144.995L302.28 179.074L295.248 196.816L316.248 196.669L356.883 101.32H322.658L298.592 132.884C294.385 138.516 278.153 161.668 274.007 164.381L280.207 101.333L245.35 101.267L204.828 196.831L226.551 196.597L257.93 124.917L249.37 196.795L270.95 196.799C272.796 196.349 319.857 132.739 325.03 123.804Z" fill="#FEFEFE"/>
<path fill-rule="evenodd" clip-rule="evenodd" d="M396.842 157.581L425.591 124.764C425.422 135.896 426.307 147.968 426.373 159.361L396.842 157.581ZM362.651 196.674L381.974 175.114L427.083 175.442L427.986 196.793L453.531 196.867L447.388 101.322L423.719 101.339L342.518 190.829L337.622 196.727L362.651 196.674Z" fill="#FEFEFE"/>
<path fill-rule="evenodd" clip-rule="evenodd" d="M548.066 161.845C521.504 187.74 480.194 191.866 499.099 149.474C505.474 135.174 511.406 126.54 524.213 120.492C537.808 114.071 560.757 112.894 559.753 132.336L584.661 127.462C586.999 112.319 576.929 103.98 564.636 101.205C529.212 93.211 491.344 113.447 475.395 147.963C461.704 177.596 473.782 198.235 506.321 198.469C520.148 198.567 533.456 195.306 543.611 189.429C550.376 185.514 564.937 174.515 567.834 167.396L548.066 161.845Z" fill="#FEFEFE"/>
</svg>
